REM DIRINDEX 1\2,1\3,1\4,1\5,1\6
REM DIRNAME cjc030,folder01,folder02,folder03,folder04,folder05
TITLE ""
FILE "Disc3Track07.mp3" MP3
  TRACK 01 AUDIO
    TITLE "3:cjc030_04231"
    INDEX 01 00:00:00
  TRACK 02 AUDIO
    TITLE "0:"
    INDEX 01 00:01:19
  TRACK 03 AUDIO
    TITLE "4:cjc030_04232"
    INDEX 01 00:01:26
  TRACK 04 AUDIO
    TITLE "0:"
    INDEX 01 00:04:09
  TRACK 05 AUDIO
    TITLE "5:cjc030_04233"
    INDEX 01 00:04:19
  TRACK 06 AUDIO
    TITLE "0:"
    INDEX 01 00:05:40
  TRACK 07 AUDIO
    TITLE "6:cjc030_04234"
    INDEX 01 00:05:56
  TRACK 08 AUDIO
    TITLE "0:"
    INDEX 01 00:08:01
  TRACK 09 AUDIO
    TITLE "3:cjc030_04235"
    INDEX 01 00:08:52
  TRACK 10 AUDIO
    TITLE "0:"
    INDEX 01 00:09:73
  TRACK 11 AUDIO
    TITLE "4:cjc030_04236"
    INDEX 01 00:10:08
  TRACK 12 AUDIO
    TITLE "0:"
    INDEX 01 00:11:74
  TRACK 13 AUDIO
    TITLE "5:cjc030_04237"
    INDEX 01 00:12:07
  TRACK 14 AUDIO
    TITLE "0:"
    INDEX 01 00:13:28
  TRACK 15 AUDIO
    TITLE "6:cjc030_04238"
    INDEX 01 00:13:41
  TRACK 16 AUDIO
    TITLE "0:"
    INDEX 01 00:18:29
  TRACK 17 AUDIO
    TITLE "3:cjc030_04239"
    INDEX 01 00:19:01
  TRACK 18 AUDIO
    TITLE "0:"
    INDEX 01 00:20:26
  TRACK 19 AUDIO
    TITLE "4:cjc030_04240"
    INDEX 01 00:20:36
  TRACK 20 AUDIO
    TITLE "0:"
    INDEX 01 00:21:68
  TRACK 21 AUDIO
    TITLE "5:cjc030_04241"
    INDEX 01 00:22:01
  TRACK 22 AUDIO
    TITLE "0:"
    INDEX 01 00:23:28
  TRACK 23 AUDIO
    TITLE "6:cjc030_04242"
    INDEX 01 00:23:40
  TRACK 24 AUDIO
    TITLE "0:"
    INDEX 01 00:25:31
  TRACK 25 AUDIO
    TITLE "3:cjc030_04243"
    INDEX 01 00:26:03
  TRACK 26 AUDIO
    TITLE "0:"
    INDEX 01 00:27:22
  TRACK 27 AUDIO
    TITLE "4:cjc030_04244"
    INDEX 01 00:27:32
  TRACK 28 AUDIO
    TITLE "0:"
    INDEX 01 00:28:55
  TRACK 29 AUDIO
    TITLE "5:cjc030_04245"
    INDEX 01 00:28:62
  TRACK 30 AUDIO
    TITLE "0:"
    INDEX 01 00:30:06
  TRACK 31 AUDIO
    TITLE "6:cjc030_04246"
    INDEX 01 00:30:20
  TRACK 32 AUDIO
    TITLE "0:"
    INDEX 01 00:33:46
  TRACK 33 AUDIO
    TITLE "3:cjc030_04247"
    INDEX 01 00:34:22
  TRACK 34 AUDIO
    TITLE "0:"
    INDEX 01 00:35:49
  TRACK 35 AUDIO
    TITLE "4:cjc030_04248"
    INDEX 01 00:35:59
  TRACK 36 AUDIO
    TITLE "0:"
    INDEX 01 00:36:60
  TRACK 37 AUDIO
    TITLE "5:cjc030_04249"
    INDEX 01 00:36:68
  TRACK 38 AUDIO
    TITLE "0:"
    INDEX 01 00:38:20
  TRACK 39 AUDIO
    TITLE "3:cjc030_04250"
    INDEX 01 00:38:73
  TRACK 40 AUDIO
    TITLE "0:"
    INDEX 01 00:40:26
  TRACK 41 AUDIO
    TITLE "4:cjc030_04251"
    INDEX 01 00:40:38
  TRACK 42 AUDIO
    TITLE "0:"
    INDEX 01 00:41:69
  TRACK 43 AUDIO
    TITLE "5:cjc030_04252"
    INDEX 01 00:42:04
  TRACK 44 AUDIO
    TITLE "0:"
    INDEX 01 00:43:31
  TRACK 45 AUDIO
    TITLE "3:cjc030_04253"
    INDEX 01 00:44:12
  TRACK 46 AUDIO
    TITLE "0:"
    INDEX 01 00:45:32
  TRACK 47 AUDIO
    TITLE "4:cjc030_04254"
    INDEX 01 00:45:37
  TRACK 48 AUDIO
    TITLE "0:"
    INDEX 01 00:47:36
  TRACK 49 AUDIO
    TITLE "5:cjc030_04255"
    INDEX 01 00:47:44
  TRACK 50 AUDIO
    TITLE "0:"
    INDEX 01 00:48:61
  TRACK 51 AUDIO
    TITLE "6:cjc030_04256"
    INDEX 01 00:49:00
  TRACK 52 AUDIO
    TITLE "0:"
    INDEX 01 00:53:19
  TRACK 53 AUDIO
    TITLE "3:cjc030_04257"
    INDEX 01 00:53:68
  TRACK 54 AUDIO
    TITLE "0:"
    INDEX 01 00:56:00
  TRACK 55 AUDIO
    TITLE "4:cjc030_04258"
    INDEX 01 00:56:10
  TRACK 56 AUDIO
    TITLE "0:"
    INDEX 01 00:57:31
  TRACK 57 AUDIO
    TITLE "5:cjc030_04259"
    INDEX 01 00:57:41
  TRACK 58 AUDIO
    TITLE "0:"
    INDEX 01 00:59:43
  TRACK 59 AUDIO
    TITLE "6:cjc030_04260"
    INDEX 01 00:59:57
  TRACK 60 AUDIO
    TITLE "0:"
    INDEX 01 01:02:46
